<?xml version="1.0" standalone="no"?>
<!DOCTYPE svg PUBLIC "-//W3C//DTD SVG 20010904//EN"
 "http://www.w3.org/TR/2001/REC-SVG-20010904/DTD/svg10.dtd">
<svg version="1.0" xmlns="http://www.w3.org/2000/svg"
 width="634.000000pt" height="634.000000pt" viewBox="0 0 634.000000 634.000000"
 preserveAspectRatio="xMidYMid meet">
<metadata>
Created by potrace 1.14, written by Peter Selinger 2001-2017
</metadata>
<g transform="translate(0.000000,634.000000) scale(0.100000,-0.100000)"
fill="#000000" stroke="none">
<path d="M2435 6095 c-152 -153 -183 -336 -72 -419 38 -28 103 -27 150 3 101
62 116 245 36 432 -12 27 -28 49 -35 49 -8 0 -43 -29 -79 -65z"/>
<path d="M1916 5942 c-8 -13 32 -129 60 -174 32 -50 85 -89 132 -95 31 -4 44
0 69 21 100 84 -14 225 -203 251 -30 4 -54 3 -58 -3z"/>
<path d="M3650 5873 c-31 -68 -52 -196 -46 -270 9 -103 50 -164 126 -187 59
-18 91 -11 129 26 91 89 56 249 -86 392 -95 95 -98 96 -123 39z"/>
<path d="M2314 5599 c109 -121 208 -300 253 -456 20 -71 25 -115 28 -233 5
-177 -5 -244 -44 -325 -17 -34 -31 -65 -31 -68 0 -3 26 -19 57 -37 67 -36 67
-35 105 59 19 47 23 81 26 214 4 173 -4 243 -44 364 -55 167 -144 320 -241
418 -54 53 -133 115 -148 115 -4 0 14 -23 39 -51z"/>
<path d="M2633 5605 c-61 -26 -81 -92 -43 -145 24 -34 92 -55 149 -45 42 7
136 52 179 86 l23 17 -34 26 c-80 61 -206 89 -274 61z"/>
<path d="M1998 5579 c-56 -8 -200 -69 -206 -86 -8 -27 151 -152 231 -181 104
-39 173 -33 239 21 26 21 48 80 42 113 -19 107 -137 158 -306 133z"/>
<path d="M4240 5453 c-113 -10 -169 -25 -226 -63 -75 -50 -104 -92 -106 -155
-1 -54 22 -92 68 -114 39 -20 132 -19 170 1 43 23 119 100 148 151 31 54 79
168 72 174 -6 6 -81 9 -126 6z"/>
<path d="M4859 5384 c-194 -31 -306 -133 -286 -262 14 -82 119 -124 212 -83
84 37 173 156 209 280 24 81 8 88 -135 65z"/>
<path d="M3851 5317 c-25 -34 -58 -91 -75 -127 -28 -60 -31 -74 -31 -170 0
-78 5 -117 18 -152 25 -65 40 -72 99 -42 26 13 48 28 48 33 0 4 -10 16 -21 27
-39 34 -59 93 -59 175 0 83 27 204 59 268 12 22 21 43 21 46 0 17 -20 -3 -59
-58z"/>
<path d="M3545 5332 c-65 -22 -145 -69 -145 -85 0 -7 21 -26 48 -44 58 -40
163 -69 213 -59 114 21 132 149 27 191 -49 19 -81 19 -143 -3z"/>
<path d="M1460 5296 c-76 -171 -37 -403 74 -446 87 -33 144 -10 185 75 22 46
23 55 13 104 -20 96 -110 215 -215 286 l-38 26 -19 -45z"/>
<path d="M2336 5280 c-77 -23 -128 -125 -128 -251 0 -125 11 -138 87 -98 96
51 166 131 184 208 12 54 -16 112 -64 135 -37 18 -38 18 -79 6z"/>
<path d="M2874 5261 c-52 -13 -94 -44 -114 -86 -26 -53 -25 -89 1 -132 70
-113 260 -89 417 53 89 80 91 87 39 112 -120 56 -246 76 -343 53z"/>
<path d="M5121 5130 c-55 -84 -83 -161 -89 -251 -4 -67 -2 -82 19 -118 54 -97
161 -111 233 -31 38 42 41 62 36 195 -2 70 -109 265 -144 265 -8 0 -32 -27
-55 -60z"/>
<path d="M1960 5026 c-92 -26 -172 -88 -183 -142 -9 -45 21 -96 66 -113 34
-12 42 -12 78 4 66 30 130 127 145 223 l7 42 -34 -1 c-19 0 -54 -6 -79 -13z"/>
<path d="M4489 4956 c-2 -2 -31 -6 -64 -10 -193 -20 -492 -128 -653 -238 -228
-154 -439 -416 -513 -635 l-20 -62 30 -44 c16 -24 50 -66 74 -93 l45 -49 32
105 c107 346 286 617 500 756 132 85 385 197 570 253 51 15 58 19 34 20 -17 1
-33 -1 -35 -3z"/>
<path d="M553 4883 c-25 -57 -31 -279 -9 -336 44 -117 170 -162 247 -88 55 53
63 146 18 236 -28 58 -138 170 -197 203 l-42 24 -17 -39z"/>
<path d="M3427 4870 c-78 -24 -147 -66 -147 -90 0 -14 22 -30 83 -60 125 -62
214 -58 257 12 62 99 -53 181 -193 138z"/>
<path d="M5475 4810 c-49 -11 -71 -27 -89 -64 -20 -42 -20 -50 -1 -85 30 -59
137 -71 227 -26 62 31 130 84 123 95 -8 13 -90 57 -127 69 -49 15 -99 19 -133
11z"/>
<path d="M1530 4761 c-69 -22 -143 -85 -189 -163 l-22 -37 38 -8 c66 -14 190
-7 233 12 107 48 100 176 -10 199 -14 2 -36 1 -50 -3z"/>
<path d="M4248 4746 c-56 -77 -82 -279 -44 -341 22 -38 73 -74 107 -77 67 -5
130 57 131 129 0 45 -16 105 -41 152 -18 33 -121 159 -131 160 -3 0 -13 -10
-22 -23z"/>
<path d="M1761 4746 c2 -1 90 -47 194 -101 463 -238 736 -423 971 -661 216
-216 300 -371 311 -569 13 -243 -95 -454 -376 -736 -75 -74 -185 -175 -246
-223 -114 -91 -374 -269 -579 -396 -321 -200 -542 -429 -697 -725 -94 -179
-147 -346 -184 -580 -22 -140 -22 -140 -34 -100 -33 99 -36 52 -15 -180 l6
-60 -29 45 c-32 49 -108 130 -123 130 -26 0 77 -203 129 -254 l40 -40 592 1
c566 1 593 2 618 21 14 10 62 81 108 156 83 140 110 196 93 196 -14 0 -97
-107 -125 -160 -53 -101 -53 -100 -49 78 3 100 0 162 -6 162 -22 0 -50 -168
-50 -298 0 -51 -4 -91 -8 -88 -14 8 -51 144 -66 241 -18 117 -14 371 8 483 59
293 227 593 521 927 66 75 71 81 190 210 250 273 349 403 426 560 67 138 90
233 90 370 0 301 -120 555 -391 825 -266 265 -634 489 -1168 711 -128 53 -164
66 -151 55z"/>
<path d="M4767 4720 c-53 -10 -64 -23 -43 -54 73 -112 196 -155 259 -91 36 35
12 112 -41 134 -33 14 -124 19 -175 11z"/>
<path d="M5185 4568 c-109 -63 -377 -193 -471 -227 -114 -41 -265 -71 -362
-71 -149 0 -359 49 -510 120 l-82 39 -40 -51 c-36 -45 -59 -93 -48 -103 8 -8
186 -56 278 -75 382 -78 666 -27 1008 181 103 63 322 230 300 229 -2 0 -34
-19 -73 -42z"/>
<path d="M5308 4543 c-34 -5 -88 -57 -89 -86 0 -12 -2 -30 -4 -39 -7 -35 18
-98 53 -134 62 -63 223 -123 335 -124 46 0 47 11 12 117 -45 132 -133 240
-214 263 -36 10 -44 10 -93 3z"/>
<path d="M1907 4528 c-20 -4 -60 -19 -87 -33 -55 -28 -200 -159 -200 -181 0
-33 135 -74 262 -78 78 -3 100 -1 133 16 58 29 94 67 106 111 29 110 -79 195
-214 165z"/>
<path d="M973 4481 c-108 -27 -150 -143 -70 -191 69 -43 157 -14 240 79 49 55
65 87 48 104 -14 14 -170 20 -218 8z"/>
<path d="M445 4369 c-22 -4 -53 -12 -68 -18 -61 -24 -183 -125 -226 -188 l-21
-31 47 -17 c149 -52 243 -61 335 -31 67 22 114 64 128 114 14 51 13 62 -10 99
-36 59 -105 86 -185 72z"/>
<path d="M2215 4309 c-216 -174 -448 -266 -690 -275 -222 -7 -426 60 -680 225
l-110 72 76 -74 c130 -127 272 -211 459 -273 79 -26 97 -28 255 -28 183 -1
269 12 415 60 125 42 302 140 419 232 l23 19 -48 35 c-27 19 -54 37 -59 41 -6
3 -33 -12 -60 -34z"/>
<path d="M704 4153 c-13 -14 -24 -38 -24 -52 1 -35 31 -100 64 -135 32 -33 45
-26 65 33 19 58 14 127 -11 151 -12 11 -24 20 -27 21 -3 0 -14 2 -25 4 -10 2
-29 -8 -42 -22z"/>
<path d="M4764 4065 c-40 -96 -43 -226 -7 -287 37 -63 117 -88 166 -52 85 62
60 197 -60 317 -31 31 -63 57 -70 57 -8 0 -21 -16 -29 -35z"/>
<path d="M5314 3989 c-103 -13 -214 -105 -214 -176 0 -87 100 -142 188 -102
80 35 174 160 198 262 l6 28 -63 -2 c-35 -2 -87 -6 -115 -10z"/>
<path d="M182 3946 c-11 -14 -7 -47 13 -126 23 -88 66 -170 114 -215 51 -49
87 -64 143 -60 81 5 128 55 128 135 0 102 -90 189 -255 245 -77 26 -133 34
-143 21z"/>
<path d="M5714 3906 c-223 -82 -316 -238 -211 -353 24 -27 93 -39 139 -24 82
27 151 143 170 284 17 127 10 134 -98 93z"/>
<path d="M1303 3892 c-6 -4 -26 -34 -44 -67 -83 -154 -154 -232 -264 -288 -56
-29 -67 -31 -166 -31 -78 0 -119 5 -153 18 -70 27 -66 12 6 -23 138 -68 314
-45 484 61 106 66 285 274 271 313 -4 9 -20 15 -44 16 -21 0 -47 2 -58 4 -11
2 -25 1 -32 -3z"/>
<path d="M948 3835 c-55 -11 -125 -42 -168 -75 -25 -19 -25 -19 -5 -35 52 -41
184 -93 225 -89 8 1 26 2 39 3 12 0 38 16 57 35 44 44 45 83 4 130 -35 40 -72
47 -152 31z"/>
<path d="M3555 3825 c-47 -22 -66 -41 -79 -79 -19 -55 -9 -93 38 -141 34 -35
51 -45 101 -55 32 -7 82 -10 110 -6 90 10 255 77 255 102 0 16 -80 88 -142
127 -100 63 -214 84 -283 52z"/>
<path d="M5015 3693 c-97 -234 -252 -481 -384 -612 -143 -142 -320 -229 -536
-265 -114 -19 -342 -13 -478 12 -68 13 -100 15 -106 8 -4 -6 -22 -37 -40 -68
-18 -32 -57 -89 -87 -128 l-54 -70 27 -11 c17 -7 109 -11 228 -11 304 -1 524
42 730 142 286 138 499 397 650 790 36 94 88 270 82 276 -2 2 -17 -26 -32 -63z"/>
<path d="M4583 3670 c-109 -28 -233 -99 -233 -133 0 -21 89 -80 174 -115 84
-34 185 -35 242 -3 102 57 102 177 2 234 -60 34 -102 38 -185 17z"/>
<path d="M5109 3589 c-14 -5 -33 -25 -42 -45 -15 -30 -16 -42 -5 -75 21 -71
137 -151 234 -161 28 -3 29 -2 28 42 -3 99 -56 204 -118 234 -38 18 -59 19
-97 5z"/>
<path d="M5808 3486 c-112 -33 -130 -144 -31 -188 70 -31 151 -8 261 72 53 38
49 45 -45 88 -78 35 -133 43 -185 28z"/>
<path d="M5432 3308 c-108 -218 -208 -296 -392 -303 -41 -2 -103 1 -138 6
l-63 9 -51 -49 -51 -49 56 -12 c142 -29 291 -14 402 40 142 69 270 249 291
409 4 28 4 51 1 51 -2 0 -28 -46 -55 -102z"/>
<path d="M5559 3269 c-39 -23 -69 -74 -69 -117 1 -45 35 -107 82 -145 71 -58
161 -90 290 -102 l66 -7 -9 42 c-58 256 -224 408 -360 329z"/>
<path d="M5055 2840 c-49 -20 -65 -48 -65 -111 0 -74 29 -135 95 -199 l46 -45
19 24 c28 38 41 94 41 177 0 86 -18 125 -67 149 -36 17 -41 17 -69 5z"/>
</g>
</svg>
