<svg xmlns="http://www.w3.org/2000/svg" viewBox="0 0 211.24 310.18"><title>Asset 1</title><path d="M63.47,305.35c3.39.51,6.77-1.38,10.16-1.52,8.88-.36,16,5.6,24.53,6.29,7.13.58,15.87-3.3,21.16-7.94,7.11-6.25-1.11-8.4-3.78-14.48a57.32,57.32,0,0,1-3.9-15.9c-1.56-13,.84-22.11,4-34.75,1.72-6.93,2.85-14,3.9-21,.34-2.35.68-4.7,1-7q.84-6.15,1.46-12.33c.22-2.22.5-4.44.67-6.67.6-8-.53-16.16-1.34-24.14-.39-3.82-.78-7.65-1.23-11.46-5-21.88,10.88-32,10.88-32-16,3.73-20.27,37.88-20.27,37.89a33.15,33.15,0,0,0,.2-9.59,25.57,25.57,0,0,0-4.84-11.31,21.47,21.47,0,0,0-2.54-2.68,36.71,36.71,0,0,1-4.4-5.89,54.8,54.8,0,0,1-3.23-5.28,29.81,29.81,0,0,1-3.35-15.86c.11-1.82.12-4.27,1-6,0,0-4.73,9.07-4.2,16.55s8.07,25.07,8.07,25.07a67.81,67.81,0,0,0-8.07-9.6c-6.4-5.87-5.94-15.47-5.94-15.47-.06,1.23-.9,2.7-1.18,3.92a18.71,18.71,0,0,0-.49,3.56c-.24,6.45,3.87,10.19,7.43,15q1.75,2.37,3.47,4.77c5.93,8.38,10.11,17.21,11.49,27.92.89,7,2.36,13.92,1.64,21A157.37,157.37,0,0,1,102.69,213c-1.56,7.35-3.35,14.67-5.29,21.93-10.47,22.57-17.18,46.87-39,61.4C58.41,296.37,52.52,303.73,63.47,305.35Z" style="fill:#4b351b"/><path d="M133.46,116.51s18.13-12.9,29.42-11,20.69,13.54,30,14.43c-1.09-.1-5.42,3.66-6.51,4.28a56.43,56.43,0,0,1-9.23,4.29c-5.61,1.91-12,3.35-17.94,2.69C149.32,130.06,140.29,123.48,133.46,116.51Z" style="fill:#7eb642"/><path d="M105.08,46.62S105,24.36,113,16.21,136,7.1,142.1,0c-.71.83-.13,6.54-.26,7.79a56.49,56.49,0,0,1-1.81,10c-1.67,5.69-4.19,11.77-8.14,16.22C125.29,41.46,114.71,45.05,105.08,46.62Z" style="fill:#7eb642"/><path d="M89.12,93.21s-.09-20.51,7.31-28,21.19-8.41,26.81-14.94c-.66.76-.12,6-.24,7.17a52.4,52.4,0,0,1-1.67,9.23c-1.54,5.24-3.86,10.85-7.5,14.94C107.75,88.46,98,91.77,89.12,93.21Z" style="fill:#7eb642"/><path d="M105.08,117.07s3.14-20.52,11.71-26.87,22.5-5.07,29.15-10.72c-.78.66-1.07,6-1.37,7.14a52.63,52.63,0,0,1-3.12,9c-2.36,5-5.57,10.23-9.84,13.75C124.44,115.25,114.18,117,105.08,117.07Z" style="fill:#7eb642"/><path d="M50.26,69.81s-19.73-10.3-23.2-21.2,2.66-24.59-.77-33.3c.4,1,5.72,3.17,6.77,3.87a56.45,56.45,0,0,1,8,6.27c4.25,4.13,8.46,9.2,10.55,14.76C55.13,49.53,53.37,60.55,50.26,69.81Z" style="fill:#7eb642"/><path d="M75.85,126.86s-19.74,10.28-30.66,6.88-18.64-16.25-27.74-18.42c1.06.26,5.87-2.87,7-3.33a55.22,55.22,0,0,1,9.73-3c5.81-1.13,12.38-1.67,18.13-.21C62,111.26,70,119,75.85,126.86Z" style="fill:#7eb642"/><path d="M153.9,94.28S163.51,71.91,175,68s27.07,3.59,36.24-.21c-1.07.44-3.25,6.13-4,7.25a58.64,58.64,0,0,1-6.5,8.62c-4.3,4.59-8.65,10.39-14.51,12.72C176.45,100.29,163.77,97.4,153.9,94.28Z" style="fill:#7eb642"/><path d="M131.79,69.91S135,45.78,145,38.93s27-3.84,34.84-10c-.92.72-1.48,6.79-1.87,8.06a59.44,59.44,0,0,1-3.93,10.06c-2.9,5.57-5.53,12.33-10.54,16.15C155.13,69.62,142.15,70.25,131.79,69.91Z" style="fill:#7eb642"/><path d="M92.08,63.82S70,53.58,66.43,42s4.35-27,.81-36.23c.41,1.08,6,3.42,7.13,4.17a59,59,0,0,1,8.44,6.74C87.27,21.08,93,25.6,95.11,31.52,98.73,41.45,95.48,54,92.08,63.82Z" style="fill:#7eb642"/><path d="M48.06,103S44.85,78.89,34.84,72,7.8,68.19,0,62c.91.72,1.47,6.79,1.86,8.06A60.29,60.29,0,0,0,5.79,80.16c2.9,5.57,5.53,12.34,10.54,16.16C24.73,102.73,37.71,103.36,48.06,103Z" style="fill:#7eb642"/><path d="M76.78,115.36s10.56-19.29,6.93-29.64-17.64-17.25-20-25.89c.28,1-2.55,5.73-3,6.86a54,54,0,0,0-2.51,9.43c-.87,5.61-2.57,11.94-1,17.4C59.94,102.67,69.06,110.07,76.78,115.36Z" style="fill:#7eb642"/></svg>